<svg xmlns="http://www.w3.org/2000/svg" width="62" height="48" viewBox="0 0 62 48">
  <metadata><?xpacket begin="﻿" id="W5M0MpCehiHzreSzNTczkc9d"?>
<x:xmpmeta xmlns:x="adobe:ns:meta/" x:xmptk="Adobe XMP Core 5.6-c142 79.160924, 2017/07/13-01:06:39        ">
   <rdf:RDF xmlns:rdf="http://www.w3.org/1999/02/22-rdf-syntax-ns#">
      <rdf:Description rdf:about=""/>
   </rdf:RDF>
</x:xmpmeta>
                                                                                                    
                                                                                                    
                                                                                                    
                                                                                                    
                                                                                                    
                                                                                                    
                                                                                                    
                                                                                                    
                                                                                                    
                                                                                                    
                                                                                                    
                                                                                                    
                                                                                                    
                                                                                                    
                                                                                                    
                                                                                                    
                                                                                                    
                                                                                                    
                                                                                                    
                                                                                                    
                           
<?xpacket end="w"?></metadata>
<defs>
    <style>
      .cls-1 {
        fill: #fff;
        fill-rule: evenodd;
      }
    </style>
  </defs>
  <path id="Services-Most-Used-Icon" class="cls-1" d="M950.385,732.614a22.52,22.52,0,0,1,.915-6.309,5.128,5.128,0,0,1,1.175-10.139,5.223,5.223,0,0,1,3.618,1.454,23.188,23.188,0,0,1,7.483-5.615c-0.01-.011-0.017-0.025-0.028-0.036l-1.607-1.584a1.8,1.8,0,0,0-2.515,0l-0.989.977a1.022,1.022,0,0,1-.708.25,1.146,1.146,0,0,1-.49-0.1,11.205,11.205,0,0,0-1.107-.457,1.134,1.134,0,0,1-.743-0.945v-1.371a1.768,1.768,0,0,0-1.778-1.754h-2.273a1.768,1.768,0,0,0-1.778,1.754v1.371a1.135,1.135,0,0,1-.744.945,11.281,11.281,0,0,0-1.106.456,1.156,1.156,0,0,1-.488.1,1.025,1.025,0,0,1-.71-0.251l-0.988-.975a1.8,1.8,0,0,0-2.516,0L941.4,711.97a1.736,1.736,0,0,0,0,2.481l0.99,0.976a1.106,1.106,0,0,1,.149,1.181,10.739,10.739,0,0,0-.462,1.091,1.146,1.146,0,0,1-.958.733h-1.39a1.768,1.768,0,0,0-1.779,1.754v2.242a1.769,1.769,0,0,0,1.779,1.754h1.39a1.144,1.144,0,0,1,.958.733,10.8,10.8,0,0,0,.462,1.089,1.108,1.108,0,0,1-.149,1.182l-0.99.977a1.739,1.739,0,0,0,0,2.48l1.608,1.587a1.8,1.8,0,0,0,2.516,0l0.99-.976a1.024,1.024,0,0,1,.709-0.252,1.152,1.152,0,0,1,.488.1,10.81,10.81,0,0,0,1.106.456,1.136,1.136,0,0,1,.743.945v1.372a1.75,1.75,0,0,0,1.024,1.582A22.67,22.67,0,0,1,950.385,732.614Zm4.458,13.442h-3.6a6.713,6.713,0,0,1-2.961-.676l-1.822-.845h7.349a22.548,22.548,0,0,1-2.615-6l-4.506-.2a12.736,12.736,0,0,0-5.751-1.409,11.855,11.855,0,0,0-3.985.676l-5.979,2.028v13.972l3.986-1.577a7.19,7.19,0,0,1,4.213-.338l14.633,3.1a7.32,7.32,0,0,0,5.409-.957l2.625-1.515A23.151,23.151,0,0,1,954.843,746.056Zm26.62-30.931a19.517,19.517,0,0,0-25.625,9.7,19.042,19.042,0,0,0,9.836,25.276,19.516,19.516,0,0,0,25.625-9.7A19.041,19.041,0,0,0,981.463,715.125Zm0.714,24.24-5.9-1.013a1.044,1.044,0,0,0-1,.385l-3.644,4.687a1.074,1.074,0,0,1-1.895-.538l-0.836-5.9a1.1,1.1,0,0,0-.7-0.864l-5.832-2.19a1.081,1.081,0,0,1-.134-1.964l5.5-2.754a1.026,1.026,0,0,0,.577-0.932l0.039-5.833a1.044,1.044,0,0,1,1.82-.7l4.043,4.261a1.077,1.077,0,0,0,1.063.3l5.939-1.654a1.1,1.1,0,0,1,1.281,1.523l-2.791,5.51a1.078,1.078,0,0,0,.077,1.1l3.41,4.907A1.054,1.054,0,0,1,982.177,739.365Z" transform="translate(-930.969 -706.969)"/>
</svg>
