<svg xmlns="http://www.w3.org/2000/svg" width="62" height="48" viewBox="0 0 62 48">
  <metadata><?xpacket begin="﻿" id="W5M0MpCehiHzreSzNTczkc9d"?>
<x:xmpmeta xmlns:x="adobe:ns:meta/" x:xmptk="Adobe XMP Core 5.6-c142 79.160924, 2017/07/13-01:06:39        ">
   <rdf:RDF xmlns:rdf="http://www.w3.org/1999/02/22-rdf-syntax-ns#">
      <rdf:Description rdf:about=""/>
   </rdf:RDF>
</x:xmpmeta>
                                                                                                    
                                                                                                    
                                                                                                    
                                                                                                    
                                                                                                    
                                                                                                    
                                                                                                    
                                                                                                    
                                                                                                    
                                                                                                    
                                                                                                    
                                                                                                    
                                                                                                    
                                                                                                    
                                                                                                    
                                                                                                    
                                                                                                    
                                                                                                    
                                                                                                    
                                                                                                    
                           
<?xpacket end="w"?></metadata>
<defs>
    <style>
      .cls-1 {
        fill: #fff;
        fill-rule: evenodd;
      }
    </style>
  </defs>
  <path id="Services-All-Icon" class="cls-1" d="M739.39,731.614a22.52,22.52,0,0,1,.915-6.309,5.128,5.128,0,0,1,1.175-10.139,5.227,5.227,0,0,1,3.618,1.454A23.209,23.209,0,0,1,752.582,711c-0.011-.011-0.018-0.024-0.029-0.034l-1.607-1.585a1.8,1.8,0,0,0-2.515,0l-0.989.976a1.023,1.023,0,0,1-.708.251,1.146,1.146,0,0,1-.49-0.1,11.289,11.289,0,0,0-1.106-.457,1.133,1.133,0,0,1-.744-0.945v-1.371a1.768,1.768,0,0,0-1.779-1.754h-2.272a1.768,1.768,0,0,0-1.778,1.754v1.371a1.135,1.135,0,0,1-.744.945,11.281,11.281,0,0,0-1.106.456,1.152,1.152,0,0,1-.488.1,1.02,1.02,0,0,1-.71-0.252l-0.989-.974a1.8,1.8,0,0,0-2.515,0l-1.607,1.585a1.736,1.736,0,0,0,0,2.481l0.99,0.976a1.106,1.106,0,0,1,.149,1.181,10.739,10.739,0,0,0-.462,1.091,1.146,1.146,0,0,1-.958.733h-1.391a1.768,1.768,0,0,0-1.778,1.754v2.242a1.768,1.768,0,0,0,1.778,1.754h1.391a1.144,1.144,0,0,1,.958.733,10.9,10.9,0,0,0,.462,1.089,1.108,1.108,0,0,1-.149,1.182l-0.99.977a1.739,1.739,0,0,0,0,2.48l1.608,1.587a1.8,1.8,0,0,0,2.515,0l0.991-.976a1.024,1.024,0,0,1,.709-0.251,1.152,1.152,0,0,1,.488.1,11.041,11.041,0,0,0,1.106.456,1.136,1.136,0,0,1,.743.945v1.372a1.75,1.75,0,0,0,1.024,1.582A22.67,22.67,0,0,1,739.39,731.614Zm4.458,13.442h-3.6a6.713,6.713,0,0,1-2.961-.676l-1.822-.845h7.349a22.53,22.53,0,0,1-2.615-6l-4.506-.2a12.736,12.736,0,0,0-5.751-1.409,11.84,11.84,0,0,0-3.986.676l-5.978,2.028v13.972l3.985-1.577a7.194,7.194,0,0,1,4.214-.338l14.633,3.1a7.318,7.318,0,0,0,5.41-.957l2.624-1.515A23.163,23.163,0,0,1,743.848,745.056Zm26.62-30.931a19.515,19.515,0,0,0-25.625,9.7,19.041,19.041,0,0,0,9.836,25.275,19.518,19.518,0,0,0,25.626-9.7A19.04,19.04,0,0,0,770.468,714.125ZM757,742h-5v-5h5v5Zm0-8h-5v-5h5v5Zm0-8h-5v-5h5v5Zm8,16h-5v-5h5v5Zm0-8h-5v-5h5v5Zm0-8h-5v-5h5v5Zm8,16h-5v-5h5v5Zm0-8h-5v-5h5v5Zm0-8h-5v-5h5v5Z" transform="translate(-719.969 -705.969)"/>
</svg>
