<svg xmlns="http://www.w3.org/2000/svg" width="62" height="48.031" viewBox="0 0 62 48.031">
  <metadata><?xpacket begin="﻿" id="W5M0MpCehiHzreSzNTczkc9d"?>
<x:xmpmeta xmlns:x="adobe:ns:meta/" x:xmptk="Adobe XMP Core 5.6-c142 79.160924, 2017/07/13-01:06:39        ">
   <rdf:RDF xmlns:rdf="http://www.w3.org/1999/02/22-rdf-syntax-ns#">
      <rdf:Description rdf:about=""/>
   </rdf:RDF>
</x:xmpmeta>
                                                                                                    
                                                                                                    
                                                                                                    
                                                                                                    
                                                                                                    
                                                                                                    
                                                                                                    
                                                                                                    
                                                                                                    
                                                                                                    
                                                                                                    
                                                                                                    
                                                                                                    
                                                                                                    
                                                                                                    
                                                                                                    
                                                                                                    
                                                                                                    
                                                                                                    
                                                                                                    
                           
<?xpacket end="w"?></metadata>
<defs>
    <style>
      .cls-1 {
        fill: #fff;
        fill-rule: evenodd;
      }
    </style>
  </defs>
  <path id="Services-New-Icon" class="cls-1" d="M559.455,715.127a19.511,19.511,0,0,0-25.626,9.708,19.059,19.059,0,0,0,9.837,25.293,19.512,19.512,0,0,0,25.626-9.709A19.059,19.059,0,0,0,559.455,715.127Zm-13.072,25.8-0.722.276a1.145,1.145,0,0,1-1.15-.2l-6.34-5.449c0.573,1.3,1.153,2.705,1.79,4.341l0.77,1.981a1.105,1.105,0,0,1-.022.854,1.137,1.137,0,0,1-2.089-.055l-3.093-7.949a1.1,1.1,0,0,1,.023-0.852,1.122,1.122,0,0,1,.627-0.589l0.993-.377a1.145,1.145,0,0,1,1.15.2l6.068,5.228a40.607,40.607,0,0,1-1.822-4.107l-0.735-1.89a1.112,1.112,0,0,1,.649-1.442,1.144,1.144,0,0,1,.868.02,1.123,1.123,0,0,1,.594.619l3.092,7.949A1.113,1.113,0,0,1,546.383,740.922Zm8.582-3.253-4.489,1.7a1.137,1.137,0,0,1-1.462-.642l-3.086-7.942a1.109,1.109,0,0,1,.648-1.442l4.274-1.621a1.024,1.024,0,0,1,.771.02,1,1,0,0,1,.532.553,0.991,0.991,0,0,1-.58,1.285l-3.02,1.146,0.808,2.083,2.8-1.063a1.006,1.006,0,0,1,.766.02,0.984,0.984,0,0,1-.046,1.826l-2.8,1.064,0.926,2.378,3.234-1.225a1.014,1.014,0,0,1,1.3.577,0.983,0.983,0,0,1-.019.76A1,1,0,0,1,554.965,737.669Zm10.605-4.016a1.191,1.191,0,0,1-1.427-.47l-2.022-3.175c-0.586-.937-1.117-1.809-1.683-2.911l-0.032.013c0.259,1.2.467,2.211,0.619,3.315l0.569,3.752a1.17,1.17,0,0,1-.745,1.267l-0.753.283a1.191,1.191,0,0,1-1.4-.432l-4.889-7.056a1.228,1.228,0,0,1-.163-1.066,1.261,1.261,0,0,1,2.27-.279l1.833,2.966c0.689,1.1,1.4,2.317,1.961,3.27l0.032-.014c-0.258-1.149-.485-2.445-0.709-3.777l-0.58-3.492a1.163,1.163,0,0,1,.745-1.281l0.623-.236a1.189,1.189,0,0,1,1.431.475l1.941,3.092c0.686,1.09,1.27,2.1,1.851,3.16l0.032-.012c-0.287-1.174-.516-2.436-0.768-3.706l-0.6-3.478a1.167,1.167,0,0,1,.741-1.285,1.2,1.2,0,0,1,1.041.093,1.174,1.174,0,0,1,.562.865l1,8.62a1.166,1.166,0,0,1-.751,1.227Zm-37.193-1.026a22.548,22.548,0,0,1,.915-6.313,5.132,5.132,0,0,1,1.174-10.146,5.224,5.224,0,0,1,3.619,1.455A23.185,23.185,0,0,1,541.568,712c-0.01-.011-0.018-0.024-0.028-0.035l-1.607-1.586a1.8,1.8,0,0,0-2.516,0l-0.988.977a1.018,1.018,0,0,1-.708.25,1.131,1.131,0,0,1-.49-0.1,11.205,11.205,0,0,0-1.107-.457,1.135,1.135,0,0,1-.744-0.946v-1.372a1.768,1.768,0,0,0-1.778-1.755H529.33a1.768,1.768,0,0,0-1.778,1.755V710.1a1.135,1.135,0,0,1-.744.946,11.281,11.281,0,0,0-1.106.456,1.156,1.156,0,0,1-.488.1,1.028,1.028,0,0,1-.711-0.252l-0.988-.975a1.8,1.8,0,0,0-2.515,0l-1.608,1.587a1.736,1.736,0,0,0,0,2.481l0.99,0.978a1.106,1.106,0,0,1,.15,1.181,10.626,10.626,0,0,0-.462,1.092,1.146,1.146,0,0,1-.958.733H517.72a1.769,1.769,0,0,0-1.778,1.755v2.244a1.769,1.769,0,0,0,1.778,1.755h1.391a1.146,1.146,0,0,1,.958.734,10.688,10.688,0,0,0,.462,1.09,1.11,1.11,0,0,1-.15,1.183l-0.99.977a1.743,1.743,0,0,0,0,2.482L521,732.243a1.793,1.793,0,0,0,2.515,0l0.99-.976a1.024,1.024,0,0,1,.71-0.252,1.137,1.137,0,0,1,.488.1,11.367,11.367,0,0,0,1.105.456,1.135,1.135,0,0,1,.744.946v1.372a1.752,1.752,0,0,0,1.024,1.583A22.689,22.689,0,0,1,528.377,732.627Zm4.458,13.452h-3.6a6.7,6.7,0,0,1-2.961-.677l-1.822-.846H531.8a22.585,22.585,0,0,1-2.614-6.006l-4.506-.195a12.737,12.737,0,0,0-5.751-1.41,11.841,11.841,0,0,0-3.986.677l-5.978,2.029v13.982l3.985-1.579a7.194,7.194,0,0,1,4.214-.338l14.633,3.1a7.315,7.315,0,0,0,5.409-.957l2.625-1.516A23.164,23.164,0,0,1,532.835,746.079Z" transform="translate(-508.969 -706.969)"/>
</svg>
